<?xml version="1.0" encoding="UTF-8" standalone="no"?>
<!DOCTYPE svg PUBLIC "-//W3C//DTD SVG 1.1//EN"
 "http://www.w3.org/Graphics/SVG/1.1/DTD/svg11.dtd">
<!-- Generated by graphviz version 2.47.0 (20210316.0004)
 -->
<!-- Title: dependencies Pages: 1 -->
<svg width="1586pt" height="284pt"
 viewBox="0.00 0.00 1586.00 284.00" xmlns="http://www.w3.org/2000/svg" xmlns:xlink="http://www.w3.org/1999/xlink">
<g id="graph0" class="graph" transform="scale(1 1) rotate(0) translate(4 280)">
<title>dependencies</title>
<polygon fill="white" stroke="transparent" points="-4,4 -4,-280 1582,-280 1582,4 -4,4"/>
<text text-anchor="start" x="768.01" y="-42.4" font-family="Times-12" font-weight="bold" font-size="14.00">Legend</text>
<polygon fill="#ffffb3" stroke="transparent" points="555,-10 555,-30 575,-30 575,-10 555,-10"/>
<text text-anchor="start" x="578.63" y="-15.4" font-family="Times-12" font-size="14.00"> &#160;Declarations</text>
<polygon fill="#8dd3c7" stroke="transparent" points="668,-10 668,-30 688,-30 688,-10 668,-10"/>
<text text-anchor="start" x="691.73" y="-15.4" font-family="Times-12" font-size="14.00"> &#160;Module</text>
<polygon fill="#80b1d3" stroke="transparent" points="754,-10 754,-30 774,-30 774,-10 754,-10"/>
<text text-anchor="start" x="777.78" y="-15.4" font-family="Times-12" font-size="14.00"> &#160;Bootstrap</text>
<polygon fill="#fdb462" stroke="transparent" points="851,-10 851,-30 871,-30 871,-10 851,-10"/>
<text text-anchor="start" x="874.67" y="-15.4" font-family="Times-12" font-size="14.00"> &#160;Providers</text>
<polygon fill="#fb8072" stroke="transparent" points="947,-10 947,-30 967,-30 967,-10 947,-10"/>
<text text-anchor="start" x="970.73" y="-15.4" font-family="Times-12" font-size="14.00"> &#160;Exports</text>
<g id="clust1" class="cluster">
<title>cluster_ComponentsModule</title>
<polygon fill="none" stroke="black" stroke-dasharray="1,5" points="8,-70 8,-268 1570,-268 1570,-70 8,-70"/>
</g>
<g id="clust2" class="cluster">
<title>cluster_ComponentsModule_declarations</title>
<polygon fill="none" stroke="black" points="16,-78 16,-130 1562,-130 1562,-78 16,-78"/>
</g>
<g id="clust15" class="cluster">
<title>cluster_ComponentsModule_exports</title>
<polygon fill="none" stroke="black" points="68,-208 68,-260 1511,-260 1511,-208 68,-208"/>
</g>
<!-- FabLoginComponent -->
<g id="node1" class="node">
<title>FabLoginComponent</title>
<polygon fill="#ffffb3" stroke="black" points="1553.77,-122 1418.23,-122 1418.23,-86 1553.77,-86 1553.77,-122"/>
<text text-anchor="middle" x="1486" y="-99.8" font-family="Times,serif" font-size="14.00">FabLoginComponent</text>
</g>
<!-- ComponentsModule -->
<g id="node12" class="node">
<title>ComponentsModule</title>
<polygon fill="#8dd3c7" stroke="black" points="845.33,-187 842.33,-191 821.33,-191 818.33,-187 714.67,-187 714.67,-151 845.33,-151 845.33,-187"/>
<text text-anchor="middle" x="780" y="-164.8" font-family="Times,serif" font-size="14.00">ComponentsModule</text>
</g>
<!-- FabLoginComponent&#45;&gt;ComponentsModule -->
<g id="edge1" class="edge">
<title>FabLoginComponent&#45;&gt;ComponentsModule</title>
<path fill="none" stroke="black" d="M1460.38,-122.11C1460.38,-141.34 1460.38,-169 1460.38,-169 1460.38,-169 855.24,-169 855.24,-169"/>
<polygon fill="black" stroke="black" points="855.24,-165.5 845.24,-169 855.24,-172.5 855.24,-165.5"/>
</g>
<!-- HeaderComponent -->
<g id="node2" class="node">
<title>HeaderComponent</title>
<polygon fill="#ffffb3" stroke="black" points="1399.74,-122 1278.26,-122 1278.26,-86 1399.74,-86 1399.74,-122"/>
<text text-anchor="middle" x="1339" y="-99.8" font-family="Times,serif" font-size="14.00">HeaderComponent</text>
</g>
<!-- HeaderComponent&#45;&gt;ComponentsModule -->
<g id="edge2" class="edge">
<title>HeaderComponent&#45;&gt;ComponentsModule</title>
<path fill="none" stroke="black" d="M1311.88,-122.27C1311.88,-140.56 1311.88,-166 1311.88,-166 1311.88,-166 855.22,-166 855.22,-166"/>
<polygon fill="black" stroke="black" points="855.22,-162.5 845.22,-166 855.22,-169.5 855.22,-162.5"/>
</g>
<!-- InfoRetoComponent -->
<g id="node3" class="node">
<title>InfoRetoComponent</title>
<polygon fill="#ffffb3" stroke="black" points="1260.6,-122 1129.4,-122 1129.4,-86 1260.6,-86 1260.6,-122"/>
<text text-anchor="middle" x="1195" y="-99.8" font-family="Times,serif" font-size="14.00">InfoRetoComponent</text>
</g>
<!-- InfoRetoComponent&#45;&gt;ComponentsModule -->
<g id="edge3" class="edge">
<title>InfoRetoComponent&#45;&gt;ComponentsModule</title>
<path fill="none" stroke="black" d="M1165.88,-122.03C1165.88,-139.06 1165.88,-162 1165.88,-162 1165.88,-162 855.46,-162 855.46,-162"/>
<polygon fill="black" stroke="black" points="855.46,-158.5 845.46,-162 855.46,-165.5 855.46,-158.5"/>
</g>
<!-- LoginComponent -->
<g id="node4" class="node">
<title>LoginComponent</title>
<polygon fill="#ffffb3" stroke="black" points="1111.28,-122 996.72,-122 996.72,-86 1111.28,-86 1111.28,-122"/>
<text text-anchor="middle" x="1054" y="-99.8" font-family="Times,serif" font-size="14.00">LoginComponent</text>
</g>
<!-- LoginComponent&#45;&gt;ComponentsModule -->
<g id="edge4" class="edge">
<title>LoginComponent&#45;&gt;ComponentsModule</title>
<path fill="none" stroke="black" d="M1023.38,-122.01C1023.38,-138.05 1023.38,-159 1023.38,-159 1023.38,-159 855.22,-159 855.22,-159"/>
<polygon fill="black" stroke="black" points="855.22,-155.5 845.22,-159 855.22,-162.5 855.22,-155.5"/>
</g>
<!-- MenuComponent -->
<g id="node5" class="node">
<title>MenuComponent</title>
<polygon fill="#ffffb3" stroke="black" points="978.99,-122 865.01,-122 865.01,-86 978.99,-86 978.99,-122"/>
<text text-anchor="middle" x="922" y="-99.8" font-family="Times,serif" font-size="14.00">MenuComponent</text>
</g>
<!-- MenuComponent&#45;&gt;ComponentsModule -->
<g id="edge5" class="edge">
<title>MenuComponent&#45;&gt;ComponentsModule</title>
<path fill="none" stroke="black" d="M889.38,-122.12C889.38,-136.78 889.38,-155 889.38,-155 889.38,-155 855.2,-155 855.2,-155"/>
<polygon fill="black" stroke="black" points="855.2,-151.5 845.2,-155 855.2,-158.5 855.2,-151.5"/>
</g>
<!-- NewRetoComponent -->
<g id="node6" class="node">
<title>NewRetoComponent</title>
<polygon fill="#ffffb3" stroke="black" points="847.2,-122 712.8,-122 712.8,-86 847.2,-86 847.2,-122"/>
<text text-anchor="middle" x="780" y="-99.8" font-family="Times,serif" font-size="14.00">NewRetoComponent</text>
</g>
<!-- NewRetoComponent&#45;&gt;ComponentsModule -->
<g id="edge6" class="edge">
<title>NewRetoComponent&#45;&gt;ComponentsModule</title>
<path fill="none" stroke="black" d="M780,-122.11C780,-122.11 780,-140.99 780,-140.99"/>
<polygon fill="black" stroke="black" points="776.5,-140.99 780,-150.99 783.5,-140.99 776.5,-140.99"/>
</g>
<!-- NoticiaComponent -->
<g id="node7" class="node">
<title>NoticiaComponent</title>
<polygon fill="#ffffb3" stroke="black" points="695.04,-122 572.96,-122 572.96,-86 695.04,-86 695.04,-122"/>
<text text-anchor="middle" x="634" y="-99.8" font-family="Times,serif" font-size="14.00">NoticiaComponent</text>
</g>
<!-- NoticiaComponent&#45;&gt;ComponentsModule -->
<g id="edge7" class="edge">
<title>NoticiaComponent&#45;&gt;ComponentsModule</title>
<path fill="none" stroke="black" d="M667.71,-122.12C667.71,-136.78 667.71,-155 667.71,-155 667.71,-155 704.68,-155 704.68,-155"/>
<polygon fill="black" stroke="black" points="704.68,-158.5 714.68,-155 704.68,-151.5 704.68,-158.5"/>
</g>
<!-- NoticiasComponent -->
<g id="node8" class="node">
<title>NoticiasComponent</title>
<polygon fill="#ffffb3" stroke="black" points="554.98,-122 427.02,-122 427.02,-86 554.98,-86 554.98,-122"/>
<text text-anchor="middle" x="491" y="-99.8" font-family="Times,serif" font-size="14.00">NoticiasComponent</text>
</g>
<!-- NoticiasComponent&#45;&gt;ComponentsModule -->
<g id="edge8" class="edge">
<title>NoticiasComponent&#45;&gt;ComponentsModule</title>
<path fill="none" stroke="black" d="M522.62,-122.01C522.62,-138.05 522.62,-159 522.62,-159 522.62,-159 704.72,-159 704.72,-159"/>
<polygon fill="black" stroke="black" points="704.72,-162.5 714.72,-159 704.72,-155.5 704.72,-162.5"/>
</g>
<!-- RegistroComponent -->
<g id="node9" class="node">
<title>RegistroComponent</title>
<polygon fill="#ffffb3" stroke="black" points="409.27,-122 280.73,-122 280.73,-86 409.27,-86 409.27,-122"/>
<text text-anchor="middle" x="345" y="-99.8" font-family="Times,serif" font-size="14.00">RegistroComponent</text>
</g>
<!-- RegistroComponent&#45;&gt;ComponentsModule -->
<g id="edge9" class="edge">
<title>RegistroComponent&#45;&gt;ComponentsModule</title>
<path fill="none" stroke="black" d="M374.62,-122.03C374.62,-139.06 374.62,-162 374.62,-162 374.62,-162 704.42,-162 704.42,-162"/>
<polygon fill="black" stroke="black" points="704.42,-165.5 714.42,-162 704.42,-158.5 704.42,-165.5"/>
</g>
<!-- RetoComponent -->
<g id="node10" class="node">
<title>RetoComponent</title>
<polygon fill="#ffffb3" stroke="black" points="262.77,-122 155.23,-122 155.23,-86 262.77,-86 262.77,-122"/>
<text text-anchor="middle" x="209" y="-99.8" font-family="Times,serif" font-size="14.00">RetoComponent</text>
</g>
<!-- RetoComponent&#45;&gt;ComponentsModule -->
<g id="edge10" class="edge">
<title>RetoComponent&#45;&gt;ComponentsModule</title>
<path fill="none" stroke="black" d="M236.62,-122.27C236.62,-140.56 236.62,-166 236.62,-166 236.62,-166 704.73,-166 704.73,-166"/>
<polygon fill="black" stroke="black" points="704.73,-169.5 714.73,-166 704.73,-162.5 704.73,-169.5"/>
</g>
<!-- RetosComponent -->
<g id="node11" class="node">
<title>RetosComponent</title>
<polygon fill="#ffffb3" stroke="black" points="137.72,-122 24.28,-122 24.28,-86 137.72,-86 137.72,-122"/>
<text text-anchor="middle" x="81" y="-99.8" font-family="Times,serif" font-size="14.00">RetosComponent</text>
</g>
<!-- RetosComponent&#45;&gt;ComponentsModule -->
<g id="edge11" class="edge">
<title>RetosComponent&#45;&gt;ComponentsModule</title>
<path fill="none" stroke="black" d="M106.62,-122.11C106.62,-141.34 106.62,-169 106.62,-169 106.62,-169 704.82,-169 704.82,-169"/>
<polygon fill="black" stroke="black" points="704.82,-172.5 714.82,-169 704.82,-165.5 704.82,-172.5"/>
</g>
<!-- FabLoginComponent  -->
<g id="node13" class="node">
<title>FabLoginComponent </title>
<polygon fill="#fb8072" stroke="black" points="1502.77,-252 1363.23,-252 1363.23,-216 1502.77,-216 1502.77,-252"/>
<text text-anchor="middle" x="1433" y="-229.8" font-family="Times,serif" font-size="14.00">FabLoginComponent </text>
</g>
<!-- ComponentsModule&#45;&gt;FabLoginComponent  -->
<g id="edge12" class="edge">
<title>ComponentsModule&#45;&gt;FabLoginComponent </title>
<path fill="none" stroke="black" stroke-dasharray="5,2" d="M845.24,-173C1000.99,-173 1381.62,-173 1381.62,-173 1381.62,-173 1381.62,-205.7 1381.62,-205.7"/>
<polygon fill="black" stroke="black" points="1378.12,-205.7 1381.62,-215.7 1385.12,-205.7 1378.12,-205.7"/>
</g>
<!-- HeaderComponent  -->
<g id="node14" class="node">
<title>HeaderComponent </title>
<polygon fill="#fb8072" stroke="black" points="1345.74,-252 1220.26,-252 1220.26,-216 1345.74,-216 1345.74,-252"/>
<text text-anchor="middle" x="1283" y="-229.8" font-family="Times,serif" font-size="14.00">HeaderComponent </text>
</g>
<!-- ComponentsModule&#45;&gt;HeaderComponent  -->
<g id="edge13" class="edge">
<title>ComponentsModule&#45;&gt;HeaderComponent </title>
<path fill="none" stroke="black" stroke-dasharray="5,2" d="M845.48,-177C972.61,-177 1240.46,-177 1240.46,-177 1240.46,-177 1240.46,-205.96 1240.46,-205.96"/>
<polygon fill="black" stroke="black" points="1236.96,-205.96 1240.46,-215.96 1243.96,-205.96 1236.96,-205.96"/>
</g>
<!-- InfoRetoComponent  -->
<g id="node15" class="node">
<title>InfoRetoComponent </title>
<polygon fill="#fb8072" stroke="black" points="1202.1,-252 1067.9,-252 1067.9,-216 1202.1,-216 1202.1,-252"/>
<text text-anchor="middle" x="1135" y="-229.8" font-family="Times,serif" font-size="14.00">InfoRetoComponent </text>
</g>
<!-- ComponentsModule&#45;&gt;InfoRetoComponent  -->
<g id="edge14" class="edge">
<title>ComponentsModule&#45;&gt;InfoRetoComponent </title>
<path fill="none" stroke="black" stroke-dasharray="5,2" d="M845.27,-180C936.09,-180 1089.55,-180 1089.55,-180 1089.55,-180 1089.55,-205.72 1089.55,-205.72"/>
<polygon fill="black" stroke="black" points="1086.05,-205.72 1089.55,-215.72 1093.05,-205.72 1086.05,-205.72"/>
</g>
<!-- LoginComponent  -->
<g id="node16" class="node">
<title>LoginComponent </title>
<polygon fill="#fb8072" stroke="black" points="1050.28,-252 931.72,-252 931.72,-216 1050.28,-216 1050.28,-252"/>
<text text-anchor="middle" x="991" y="-229.8" font-family="Times,serif" font-size="14.00">LoginComponent </text>
</g>
<!-- ComponentsModule&#45;&gt;LoginComponent  -->
<g id="edge15" class="edge">
<title>ComponentsModule&#45;&gt;LoginComponent </title>
<path fill="none" stroke="black" stroke-dasharray="5,2" d="M845.32,-184C895.2,-184 955.43,-184 955.43,-184 955.43,-184 955.43,-205.95 955.43,-205.95"/>
<polygon fill="black" stroke="black" points="951.93,-205.95 955.43,-215.95 958.93,-205.95 951.93,-205.95"/>
</g>
<!-- MenuComponent  -->
<g id="node17" class="node">
<title>MenuComponent </title>
<polygon fill="#fb8072" stroke="black" points="913.99,-252 796.01,-252 796.01,-216 913.99,-216 913.99,-252"/>
<text text-anchor="middle" x="855" y="-229.8" font-family="Times,serif" font-size="14.00">MenuComponent </text>
</g>
<!-- ComponentsModule&#45;&gt;MenuComponent  -->
<g id="edge16" class="edge">
<title>ComponentsModule&#45;&gt;MenuComponent </title>
<path fill="none" stroke="black" stroke-dasharray="5,2" d="M820.71,-187.11C820.71,-187.11 820.71,-205.99 820.71,-205.99"/>
<polygon fill="black" stroke="black" points="817.21,-205.99 820.71,-215.99 824.21,-205.99 817.21,-205.99"/>
</g>
<!-- NewRetoComponent  -->
<g id="node18" class="node">
<title>NewRetoComponent </title>
<polygon fill="#fb8072" stroke="black" points="777.7,-252 640.3,-252 640.3,-216 777.7,-216 777.7,-252"/>
<text text-anchor="middle" x="709" y="-229.8" font-family="Times,serif" font-size="14.00">NewRetoComponent </text>
</g>
<!-- ComponentsModule&#45;&gt;NewRetoComponent  -->
<g id="edge17" class="edge">
<title>ComponentsModule&#45;&gt;NewRetoComponent </title>
<path fill="none" stroke="black" stroke-dasharray="5,2" d="M746.34,-187.11C746.34,-187.11 746.34,-205.99 746.34,-205.99"/>
<polygon fill="black" stroke="black" points="742.84,-205.99 746.34,-215.99 749.84,-205.99 742.84,-205.99"/>
</g>
<!-- NoticiasComponent  -->
<g id="node19" class="node">
<title>NoticiasComponent </title>
<polygon fill="#fb8072" stroke="black" points="621.99,-252 490.01,-252 490.01,-216 621.99,-216 621.99,-252"/>
<text text-anchor="middle" x="556" y="-229.8" font-family="Times,serif" font-size="14.00">NoticiasComponent </text>
</g>
<!-- ComponentsModule&#45;&gt;NoticiasComponent  -->
<g id="edge18" class="edge">
<title>ComponentsModule&#45;&gt;NoticiasComponent </title>
<path fill="none" stroke="black" stroke-dasharray="5,2" d="M714.79,-184C662.3,-184 597.24,-184 597.24,-184 597.24,-184 597.24,-205.95 597.24,-205.95"/>
<polygon fill="black" stroke="black" points="593.74,-205.95 597.24,-215.95 600.74,-205.95 593.74,-205.95"/>
</g>
<!-- RegistroComponent  -->
<g id="node20" class="node">
<title>RegistroComponent </title>
<polygon fill="#fb8072" stroke="black" points="472.27,-252 339.73,-252 339.73,-216 472.27,-216 472.27,-252"/>
<text text-anchor="middle" x="406" y="-229.8" font-family="Times,serif" font-size="14.00">RegistroComponent </text>
</g>
<!-- ComponentsModule&#45;&gt;RegistroComponent  -->
<g id="edge19" class="edge">
<title>ComponentsModule&#45;&gt;RegistroComponent </title>
<path fill="none" stroke="black" stroke-dasharray="5,2" d="M714.72,-180C618.42,-180 449.57,-180 449.57,-180 449.57,-180 449.57,-205.72 449.57,-205.72"/>
<polygon fill="black" stroke="black" points="446.07,-205.72 449.57,-215.72 453.07,-205.72 446.07,-205.72"/>
</g>
<!-- RetoComponent  -->
<g id="node21" class="node">
<title>RetoComponent </title>
<polygon fill="#fb8072" stroke="black" points="321.77,-252 210.23,-252 210.23,-216 321.77,-216 321.77,-252"/>
<text text-anchor="middle" x="266" y="-229.8" font-family="Times,serif" font-size="14.00">RetoComponent </text>
</g>
<!-- ComponentsModule&#45;&gt;RetoComponent  -->
<g id="edge20" class="edge">
<title>ComponentsModule&#45;&gt;RetoComponent </title>
<path fill="none" stroke="black" stroke-dasharray="5,2" d="M714.42,-177C583.27,-177 301.13,-177 301.13,-177 301.13,-177 301.13,-205.96 301.13,-205.96"/>
<polygon fill="black" stroke="black" points="297.63,-205.96 301.13,-215.96 304.63,-205.96 297.63,-205.96"/>
</g>
<!-- RetosComponent  -->
<g id="node22" class="node">
<title>RetosComponent </title>
<polygon fill="#fb8072" stroke="black" points="192.22,-252 75.78,-252 75.78,-216 192.22,-216 192.22,-252"/>
<text text-anchor="middle" x="134" y="-229.8" font-family="Times,serif" font-size="14.00">RetosComponent </text>
</g>
<!-- ComponentsModule&#45;&gt;RetosComponent  -->
<g id="edge21" class="edge">
<title>ComponentsModule&#45;&gt;RetosComponent </title>
<path fill="none" stroke="black" stroke-dasharray="5,2" d="M714.83,-173C558.25,-173 173.74,-173 173.74,-173 173.74,-173 173.74,-205.7 173.74,-205.7"/>
<polygon fill="black" stroke="black" points="170.24,-205.7 173.74,-215.7 177.24,-205.7 170.24,-205.7"/>
</g>
</g>
</svg>
