<?xml version="1.0" encoding="UTF-8" standalone="no"?>
<!DOCTYPE svg PUBLIC "-//W3C//DTD SVG 1.1//EN"
 "http://www.w3.org/Graphics/SVG/1.1/DTD/svg11.dtd">
<!-- Generated by graphviz version 2.47.0 (20210316.0004)
 -->
<!-- Title: dependencies Pages: 1 -->
<svg width="504pt" height="211pt"
 viewBox="0.00 0.00 504.00 211.00" xmlns="http://www.w3.org/2000/svg" xmlns:xlink="http://www.w3.org/1999/xlink">
<g id="graph0" class="graph" transform="scale(1 1) rotate(0) translate(4 207)">
<title>dependencies</title>
<polygon fill="white" stroke="transparent" points="-4,4 -4,-207 500,-207 500,4 -4,4"/>
<text text-anchor="start" x="227.01" y="-42.4" font-family="Times-12" font-weight="bold" font-size="14.00">Legend</text>
<polygon fill="#ffffb3" stroke="transparent" points="14,-10 14,-30 34,-30 34,-10 14,-10"/>
<text text-anchor="start" x="37.63" y="-15.4" font-family="Times-12" font-size="14.00"> &#160;Declarations</text>
<polygon fill="#8dd3c7" stroke="transparent" points="127,-10 127,-30 147,-30 147,-10 127,-10"/>
<text text-anchor="start" x="150.73" y="-15.4" font-family="Times-12" font-size="14.00"> &#160;Module</text>
<polygon fill="#80b1d3" stroke="transparent" points="213,-10 213,-30 233,-30 233,-10 213,-10"/>
<text text-anchor="start" x="236.78" y="-15.4" font-family="Times-12" font-size="14.00"> &#160;Bootstrap</text>
<polygon fill="#fdb462" stroke="transparent" points="310,-10 310,-30 330,-30 330,-10 310,-10"/>
<text text-anchor="start" x="333.67" y="-15.4" font-family="Times-12" font-size="14.00"> &#160;Providers</text>
<polygon fill="#fb8072" stroke="transparent" points="406,-10 406,-30 426,-30 426,-10 406,-10"/>
<text text-anchor="start" x="429.73" y="-15.4" font-family="Times-12" font-size="14.00"> &#160;Exports</text>
<g id="clust1" class="cluster">
<title>cluster_MisRetosPageModule</title>
<polygon fill="none" stroke="black" stroke-dasharray="1,5" points="79,-70 79,-195 417,-195 417,-70 79,-70"/>
</g>
<g id="clust4" class="cluster">
<title>cluster_MisRetosPageModule_imports</title>
<polygon fill="none" stroke="black" points="207,-78 207,-130 409,-130 409,-78 207,-78"/>
</g>
<g id="clust2" class="cluster">
<title>cluster_MisRetosPageModule_declarations</title>
<polygon fill="none" stroke="black" points="87,-78 87,-130 199,-130 199,-78 87,-78"/>
</g>
<!-- MisRetosPage -->
<g id="node1" class="node">
<title>MisRetosPage</title>
<polygon fill="#ffffb3" stroke="black" points="191.38,-122 94.62,-122 94.62,-86 191.38,-86 191.38,-122"/>
<text text-anchor="middle" x="143" y="-99.8" font-family="Times,serif" font-size="14.00">MisRetosPage</text>
</g>
<!-- MisRetosPageModule -->
<g id="node2" class="node">
<title>MisRetosPageModule</title>
<polygon fill="#8dd3c7" stroke="black" points="302.43,-187 299.43,-191 278.43,-191 275.43,-187 161.57,-187 161.57,-151 302.43,-151 302.43,-187"/>
<text text-anchor="middle" x="232" y="-164.8" font-family="Times,serif" font-size="14.00">MisRetosPageModule</text>
</g>
<!-- MisRetosPage&#45;&gt;MisRetosPageModule -->
<g id="edge1" class="edge">
<title>MisRetosPage&#45;&gt;MisRetosPageModule</title>
<path fill="none" stroke="black" d="M176.61,-122.11C176.61,-122.11 176.61,-140.99 176.61,-140.99"/>
<polygon fill="black" stroke="black" points="173.11,-140.99 176.61,-150.99 180.11,-140.99 173.11,-140.99"/>
</g>
<!-- MisRetosPageRoutingModule -->
<g id="node3" class="node">
<title>MisRetosPageRoutingModule</title>
<polygon fill="#8dd3c7" stroke="black" points="400.55,-122 397.55,-126 376.55,-126 373.55,-122 215.45,-122 215.45,-86 400.55,-86 400.55,-122"/>
<text text-anchor="middle" x="308" y="-99.8" font-family="Times,serif" font-size="14.00">MisRetosPageRoutingModule</text>
</g>
<!-- MisRetosPageRoutingModule&#45;&gt;MisRetosPageModule -->
<g id="edge2" class="edge">
<title>MisRetosPageRoutingModule&#45;&gt;MisRetosPageModule</title>
<path fill="none" stroke="black" d="M258.72,-122.11C258.72,-122.11 258.72,-140.99 258.72,-140.99"/>
<polygon fill="black" stroke="black" points="255.22,-140.99 258.72,-150.99 262.22,-140.99 255.22,-140.99"/>
</g>
</g>
</svg>
